HIERARCHY
ROOT Hips
{
    OFFSET 0.000000 0.000000 0.000000
    CHANNELS 6 Xposition Yposition Zposition Zrotation Xrotation Yrotation
        JOINT Spine1
        {
            OFFSET -0.000000 23.269398 0.000000
            CHANNELS 3 Zrotation Xrotation Yrotation
            JOINT Neck
            {
                OFFSET -0.000000 18.032967 0.000000
                CHANNELS 3 Zrotation Xrotation Yrotation
                JOINT Head
                {
                    OFFSET -0.000000 13.091072 1.689171
                    CHANNELS 3 Zrotation Xrotation Yrotation
                    End Site
                    {
                        OFFSET -0.000000 16.891708 0.000000
                    }
                }
            }
            JOINT LeftShoulder
            {
                OFFSET 3.336773 14.146137 -0.012206
                CHANNELS 3 Zrotation Xrotation Yrotation
                JOINT LeftArm
                {
                    OFFSET 11.765518 0.000000 0.000000
                    CHANNELS 3 Zrotation Xrotation Yrotation
                    JOINT LeftForeArm
                    {
                        OFFSET 25.163450 0.000000 0.000000
                        CHANNELS 3 Zrotation Xrotation Yrotation
                        JOINT LeftHand
                        {
                            OFFSET 21.783554 0.000000 0.000000
                            CHANNELS 3 Zrotation Xrotation Yrotation
                            End Site
                            {
                                OFFSET 12.668781 0.000000 0.000000
                            }
                        }
                    }
                }
            }
            JOINT RightShoulder
            {
                OFFSET -3.409204 14.146137 -0.012206
                CHANNELS 3 Zrotation Xrotation Yrotation
                JOINT RightArm
                {
                    OFFSET -11.765518 0.000000 0.000000
                    CHANNELS 3 Zrotation Xrotation Yrotation
                    JOINT RightForeArm
                    {
                        OFFSET -25.163450 0.000000 0.000000
                        CHANNELS 3 Zrotation Xrotation Yrotation
                        JOINT RightHand
                        {
                            OFFSET -21.783554 0.000000 0.000000
                            CHANNELS 3 Zrotation Xrotation Yrotation
                            End Site
                            {
                                OFFSET -12.668781 0.000000 0.000000
                            }
                        }
                    }
                }
            }
        }
        JOINT LeftUpLeg
    {
        OFFSET 8.445854 0.000000 0.000000
        CHANNELS 3 Zrotation Xrotation Yrotation
        JOINT LeftLeg
        {
            OFFSET -0.000000 -40.674755 0.000000
            CHANNELS 3 Zrotation Xrotation Yrotation
            JOINT LeftFoot
            {
                OFFSET -0.000000 -37.111794 0.000000
                CHANNELS 3 Zrotation Xrotation Yrotation
                JOINT LeftToeBase
                {
                    OFFSET -0.000000 -5.489805 12.668781
                    CHANNELS 3 Zrotation Xrotation Yrotation
                    End Site
                    {
                        OFFSET -0.000000 0.000000 3.378341
                    }
                }
            }
        }
    }
    JOINT RightUpLeg
    {
        OFFSET -8.445854 0.000000 0.000000
        CHANNELS 3 Zrotation Xrotation Yrotation
        JOINT RightLeg
        {
            OFFSET -0.000000 -40.674755 0.000000
            CHANNELS 3 Zrotation Xrotation Yrotation
            JOINT RightFoot
            {
                OFFSET -0.000000 -37.111794 0.000000
                CHANNELS 3 Zrotation Xrotation Yrotation
                JOINT RightToeBase
                {
                    OFFSET -0.000000 -5.489805 12.668781
                    CHANNELS 3 Zrotation Xrotation Yrotation
                    End Site
                    {
                        OFFSET -0.000000 0.000000 3.378341
                    }
                }
            }
        }
    }
}
MOTION
Frames:    13
Frame Time:    0.008333
10.638842    82.532738    6.461912    -4.001273    3.263457    175.265564    -2.420513    12.419937    -11.002192    -0.756580    -2.946994    -0.289553    0.963856    3.716026    -0.535213    0.230920    9.427460    9.893175    -54.585812    25.318356    -37.060768    15.892899    -6.834044    -32.133778    12.463795    -3.541388    -11.904797    -2.836883    8.992946    -3.205788    60.178234    17.792768    18.022409    -1.813160    -4.858281    6.037811    -6.078617    -4.905028    2.681753    -5.005083    11.501169    -10.191912    -0.796739    17.780592    -4.481931    4.374656    -9.559416    16.666525    -5.856189    -9.262158    -5.857639    -2.453829    -17.599567    5.610795    -5.426810    10.170097    4.786545    11.373672    -9.511758    3.294037    2.795173    -5.662770    2.264381    
10.852406    82.498978    5.714369    -3.953403    3.272798    175.315933    -2.236029    12.378862    -11.205105    -0.814781    -2.935325    -0.158149    0.516023    3.115323    -0.331178    0.157303    9.544065    9.974425    -54.834358    25.645695    -36.873852    15.651850    -5.461041    -31.388203    15.308827    -2.509566    -10.908711    -2.803729    8.968005    -3.130111    60.127014    18.164743    17.917360    -1.845007    -5.057723    6.266645    -6.136436    -5.087116    2.432303    -4.712448    11.548467    -10.209921    -1.159791    18.674868    -4.492607    4.239047    -9.758522    16.592466    -5.863901    -9.407189    -6.332445    -2.317318    -17.644484    5.564654    -5.381419    11.005108    5.248301    12.342402    -9.189547    2.654253    2.204288    -4.586194    1.942910    
11.078750    82.483910    4.958527    -3.827766    3.252065    175.333191    -2.005918    12.413655    -11.344335    -0.772194    -3.158341    -0.022240    -0.081160    2.776611    -0.092235    0.100682    9.489636    10.032886    -55.213379    25.906923    -36.658588    15.362124    -5.101096    -30.454313    15.499087    -2.395835    -10.983037    -2.759118    8.801117    -3.026988    60.260036    17.800083    17.959690    -1.674479    -4.583752    6.062551    -6.647964    -4.637041    2.445003    -4.565675    11.485588    -10.123836    -1.018757    19.851004    -5.024986    3.924099    -10.151432    16.614496    -5.265858    -8.813761    -6.554281    -2.040494    -17.771914    5.576232    -5.241963    11.990913    -1.283697    13.937666    -7.428625    8.915777    1.619295    -3.662142    1.980293    
11.282725    82.587013    4.169997    -4.443480    3.327006    174.906525    -2.555237    12.393308    -10.786376    -0.875967    -3.369677    0.127161    -0.449131    2.616760    0.110681    -0.005125    9.572680    10.143289    -55.482689    26.320263    -36.550678    15.009493    -4.873682    -29.371857    15.671505    -2.441851    -11.030249    -2.708418    8.741884    -2.902426    62.042595    14.286030    18.652975    -2.974950    -3.251485    3.672438    -4.741868    -3.340896    4.462279    -5.280563    11.459827    -9.416855    -1.062841    20.836559    -5.183020    3.242371    -11.476444    17.191582    -4.003913    -7.798700    -7.745801    -2.410052    -17.919228    6.178379    -5.269377    13.255315    -0.692484    12.140161    -6.663470    7.760581    3.365390    -6.977646    3.346539    
11.480619    82.630920    3.505903    -3.934253    2.803165    175.231964    -1.760206    11.731104    -11.446921    -0.972014    -3.490480    0.253824    -0.741680    2.567809    0.275032    -0.147175    9.739529    10.217146    -55.218716    27.363092    -36.425709    14.773264    -5.072934    -28.442097    15.810556    -2.790753    -10.629615    -2.599121    8.672499    -2.865093    61.143749    18.622921    17.812378    -4.009786    -5.447302    5.685829    -4.353100    -5.363197    3.013408    -4.440735    10.622162    -9.832697    -1.590884    22.303846    -4.539522    3.027635    -11.240318    16.643183    -4.439080    -8.440510    -8.300521    -2.177664    -18.411566    5.934387    -4.800933    14.143821    -1.407496    12.371511    -5.639707    8.822581    3.426811    -6.736293    2.462201    
11.747547    82.618561    2.686335    -3.424941    3.073532    175.301804    -1.169805    12.010850    -11.685513    -1.042328    -3.693180    0.427273    -1.030210    2.436324    0.491424    -0.189570    9.796346    10.315743    -55.476833    27.813772    -36.303280    14.279618    -4.928866    -27.297798    15.849928    -2.905631    -10.460562    -2.532006    8.559461    -2.735498    61.137691    18.896235    17.898455    -4.013887    -5.495362    5.708188    -4.330659    -5.407897    2.965802    -3.821187    10.642127    -9.790806    -1.655792    23.934483    -4.914463    2.657730    -10.352851    16.438404    -5.259836    -9.430587    -8.695968    -1.654799    -17.909861    5.976482    -4.556118    14.856559    -1.516031    14.947011    -6.754573    8.780069    3.121805    -6.062891    1.972394    
11.988887    82.692802    1.913293    -3.258754    3.100540    175.245041    -0.844039    11.908219    -11.745930    -1.132136    -3.811780    0.614111    -1.265625    2.389934    0.711373    -0.243137    10.001528    10.459101    -55.802593    28.335897    -36.176182    13.743744    -4.871024    -26.137735    15.823792    -3.088833    -10.202716    -2.529619    8.689674    -2.646693    60.417168    18.579266    18.182417    -2.165887    -5.250646    6.178895    -5.191720    -5.263718    2.864592    -3.447261    10.270053    -9.608202    -2.146688    25.520132    -4.476922    2.595107    -10.228259    16.194849    -5.477791    -10.472177    -11.670953    -1.466428    -17.734501    6.123938    -4.324275    15.599288    -1.455707    14.577052    -7.102590    8.869850    2.315412    -4.854011    2.153316    
12.225046    82.787964    1.144631    -3.157422    3.125407    175.200211    -0.658185    11.874767    -11.765414    -1.253480    -3.936245    0.788533    -1.375451    2.302739    0.896239    -0.232744    10.057652    10.455586    -56.088707    28.855484    -35.910748    13.172113    -4.881654    -24.990633    15.620221    -3.325296    -9.990114    -2.600260    8.790339    -2.549298    62.248451    15.095710    19.291313    -2.655560    -2.326834    3.612025    -6.252226    -2.460196    3.974147    -2.771144    9.720490    -9.849186    -3.495350    27.075172    -4.059147    2.632399    -7.292538    15.613344    -9.138818    -14.281977    -12.751109    -1.612347    -17.764467    6.161277    -3.499118    16.892733    4.917322    12.987024    -9.253192    2.686401    2.792529    -5.724496    2.426417    
12.467073    82.892960    0.389227    -3.090096    3.135852    175.162018    -0.503048    11.780464    -11.771486    -1.311638    -3.954695    0.962852    -1.536020    2.226268    1.093682    -0.225277    10.093888    10.475079    -56.246426    29.614876    -35.550297    12.592260    -5.008864    -24.018610    15.549550    -3.614790    -9.452122    -2.577285    8.809280    -2.507934    60.452206    19.390228    18.966408    -1.906288    -4.493073    6.103957    -6.761321    -4.532369    2.385864    -2.398511    9.105017    -9.327557    -4.025165    28.860271    -3.608117    1.398183    -6.439018    14.994810    -9.137227    -14.797522    -15.486072    -1.250917    -17.323442    6.210848    -3.781148    16.894911    -1.235780    11.173424    -7.171151    8.654087    3.562693    -6.990558    2.571371    
12.730644    82.985016    -0.385089    -2.989960    3.230174    175.056183    -0.309692    11.749780    -11.615184    -1.428687    -4.003917    1.126363    -1.623936    2.297451    1.265785    -0.245784    10.076590    10.414657    -56.355110    30.437860    -35.049835    12.013173    -5.384982    -23.469767    14.839360    -4.036885    -8.842252    -2.617935    9.001136    -2.508713    60.456558    19.685144    19.516811    -1.772908    -4.376733    5.914448    -7.036791    -4.441968    2.551745    -2.079814    8.401387    -8.716317    -4.455159    30.937822    -3.313735    1.886001    -4.621179    14.388023    -9.137227    -14.797522    -15.486072    -1.131961    -16.931746    6.187677    -3.744540    17.368761    -0.956406    13.681028    -7.504350    9.830057    1.650907    -3.595200    1.719086    
12.964670    83.109077    -1.144003    -2.758682    3.525542    175.036499    0.029907    11.847788    -11.592805    -1.496453    -4.075113    1.287999    -1.703027    2.589497    1.443103    -0.274075    10.145942    10.385260    -56.408100    31.306421    -34.675053    11.495681    -5.599936    -22.512262    14.384537    -4.363972    -8.358539    -2.596857    9.057337    -2.514625    61.023071    20.745104    19.917835    -3.410728    -4.558328    5.453459    -6.339402    -4.544330    2.677379    -1.276821    7.820494    -8.194059    -5.396412    32.919388    -3.201949    2.353585    -2.593112    14.138849    -18.218090    -22.513784    -10.382114    -0.789155    -16.304136    6.098881    -3.585268    17.876656    -0.766556    12.883451    -7.990750    9.862790    2.172817    -4.026597    0.785062    
13.226848    83.181908    -1.895826    -2.707334    3.681803    175.008682    0.119086    11.900591    -11.450927    -1.569012    -4.227682    1.449264    -1.716110    2.960545    1.612162    -0.272526    10.130877    10.394581    -56.366955    32.154099    -34.367641    10.886343    -5.755767    -21.599285    13.744873    -4.632604    -7.924573    -2.666519    9.182861    -2.415544    60.450485    20.319603    20.646698    -1.495431    -4.192757    5.439370    -7.064684    -4.295851    2.823389    -0.732828    7.009345    -7.503243    -6.224653    35.009727    -2.797458    1.796751    -0.858680    13.702044    -19.644661    -23.867468    -12.450034    -0.625888    -15.723360    6.228736    -3.523078    18.085918    -0.985537    12.895760    -8.427746    10.131119    1.764799    -3.289489    0.644670    
13.476561    83.252594    -2.603818    -2.685138    3.760462    174.966660    0.221362    11.827450    -11.246261    -1.634446    -4.311833    1.595318    -1.712085    3.365193    1.763330    -0.294760    10.123840    10.326337    -56.504234    32.765289    -33.993721    10.285730    -5.742095    -20.586100    12.945189    -4.742259    -7.660473    -2.672033    9.219803    -2.396849    60.741577    22.024958    20.974615    -3.049347    -4.715902    5.434908    -6.286479    -4.717197    2.656755    -0.182345    6.076598    -6.841044    -7.161324    37.075817    -2.689827    1.320860    1.124070    13.457190    -20.938915    -25.003639    -14.191612    -0.408933    -15.333430    6.044042    -3.669846    18.420010    -0.840807    10.312375    -8.351190    9.979944    2.006054    -4.053775    1.457374    
